<svg version="1.1" xmlns="http://www.w3.org/2000/svg" style="display: block;" viewBox="118 118 1200 1200" width="300" height="300" xmlns:xlink="http://www.w3.org/1999/xlink">
<path transform="translate(0,0)" fill="rgb(231,0,17)" d="M 720.735 427.53 C 721.108 427.535 721.481 427.52 721.852 427.545 C 728.277 427.981 740.735 442.805 745.022 447.79 C 757.357 462.131 766.181 479.138 774.705 495.896 C 805.31 556.643 827.338 621.344 840.16 688.147 C 842.41 699.373 845.137 710.773 846.68 722.116 C 851.676 758.836 852.395 797.498 849.562 834.375 C 844.849 895.744 820.44 965.779 772.445 1006.93 C 774.196 1002.63 776.005 998.324 777.505 993.93 C 801.427 923.82 790.412 816.349 757.923 750.389 C 758.292 767.862 757.28 785.344 756.611 802.802 C 756.2 813.505 755.163 824.885 756.701 835.521 C 757.813 843.21 762.828 850.424 765.536 857.736 C 777.556 890.195 786.43 921.586 778.983 956.419 C 774.933 975.365 764.596 992.868 756.104 1010.08 C 742.327 1038.02 730.689 1067.73 726.946 1098.81 L 726.488 1100.26 L 725.123 1100.82 C 723.192 1097.97 723.009 1094.08 722.311 1090.74 C 718.491 1072.46 712.314 1055.05 705.363 1037.78 C 681.556 978.63 654.439 956.06 673.918 886.789 C 676.707 876.874 680.169 867.019 683.952 857.444 C 686.528 850.923 690.371 844.158 691.57 837.226 C 693.66 825.14 692.414 811.956 692.015 799.744 C 691.489 783.636 690.966 767.578 691.108 751.459 C 688.264 755.76 685.798 760.3 683.739 765.027 C 655.63 830.915 649.137 940.216 675.808 1007.22 C 674.576 1006 673.364 1004.76 672.172 1003.5 C 610.274 938.986 596.046 862.706 598.061 776.113 C 599.027 734.646 606.57 692.207 616.634 652.065 C 632.528 588.663 673.904 472.376 720.735 427.53 z"/>
<path transform="translate(0,0)" fill="rgb(231,0,17)" d="M 231.886 340.449 C 234.192 341.942 235.045 342.539 235.666 345.441 C 237.058 351.948 236.723 359.345 237.677 366.024 C 240.901 388.611 244.461 411.394 248.076 433.924 C 256.914 488.993 286.979 636.436 324.661 674.598 C 308.57 625.552 312.481 416.881 325.401 367.273 C 331.943 395.995 337.527 424.783 344.767 453.354 C 353.365 487.282 363.749 520.901 374.273 554.276 C 410.859 670.306 456.297 784.676 520.932 888.102 C 539.784 918.269 562.339 947.727 588.2 972.245 C 590.607 974.528 594.552 979.205 597.61 979.912 C 597.001 976.419 588.513 968.935 585.862 966.035 C 573.896 952.946 562.714 938.021 552.906 923.268 C 522.413 877.399 496.292 822.936 487.084 768.228 C 485.093 756.4 477.22 709.892 484.996 700.424 C 486.075 699.111 486.397 699.457 487.97 699.316 C 493.657 708.738 496.921 725.994 500.435 736.999 C 505.316 752.672 510.907 768.114 517.193 783.278 C 541.658 842.361 574.141 901.114 607.766 955.492 C 620.723 976.72 675.5 1061.73 674.957 1081.12 C 674.912 1082.73 674.687 1082.71 673.512 1083.77 C 667.099 1082.79 652.728 1071.17 646.412 1067.37 C 626.396 1055.51 605.709 1044.82 584.456 1035.36 C 547.222 1018.75 507.823 1006.56 469.173 993.721 C 407.417 973.198 335.134 952.462 294.694 897.673 C 272.699 867.874 265.611 830.613 265.791 794.298 C 265.823 787.686 265.21 780.021 266.489 773.584 C 267.006 770.981 267.193 770.05 269.34 768.57 C 273.674 774.652 274.963 783.022 278.174 789.797 C 286.842 808.087 297.859 827.628 309.898 843.925 C 369.431 924.513 462.658 946.639 544.744 994.633 C 529.265 979.929 506.554 966.617 489.06 953.958 C 458.75 932.024 429.393 906.243 404.173 878.623 C 385.1 857.735 367.584 835.88 353.294 811.371 C 345.81 798.534 340.905 783.417 331.385 771.893 C 323.076 761.834 304.525 749.226 293.723 737.699 C 288.879 732.53 284.75 726.313 280.587 720.576 C 253.378 683.077 237.966 640.166 227.938 595.258 C 222.921 572.786 219.008 549.062 216.925 526.167 C 213.274 486.045 211.455 372.617 231.886 340.449 z"/>
<path transform="translate(0,0)" fill="rgb(231,0,17)" d="M 1214.88 340.302 C 1215.99 340.695 1217.15 341.076 1218.04 341.891 C 1220.49 344.145 1221.51 349.627 1222.45 352.824 C 1231.25 382.719 1233.72 415.263 1234.18 446.322 C 1235.59 540.632 1223.7 646.985 1165.72 724.964 C 1158.16 735.134 1148.99 744.815 1139.42 753.112 C 1131.39 760.072 1121.34 766.329 1115.15 775.03 C 1106.34 787.406 1100.93 802.279 1093.12 815.379 C 1073.64 848.048 1047.5 878.16 1019.62 903.92 C 1000.41 921.952 980.218 938.907 959.138 954.709 C 945.791 964.532 920.376 979.942 910.495 990.147 L 911.62 990.196 C 1009.62 934.258 1089.22 923.61 1155.47 819.408 C 1166.18 802.559 1172.11 783.544 1181.92 766.378 L 1182.58 765.236 C 1182.97 810.987 1184.92 849.329 1159.7 889.943 C 1121.7 951.153 1039.51 974.038 975.057 995.305 C 938.85 1007.25 901.732 1018.85 866.815 1034.23 C 848.804 1042.26 831.155 1051.07 813.918 1060.65 C 806.422 1064.82 781.032 1082.56 775.09 1083.94 L 773.865 1082.29 C 773.334 1059.89 828 980.784 839.961 958.271 C 876.25 900.064 910.632 838.076 935.76 774.184 C 941.004 760.851 946.072 747.197 950.096 733.451 C 952.762 724.341 954.578 714.629 957.834 705.742 C 958.741 703.265 959.654 701.274 961.639 699.459 L 963.51 699.692 C 966.423 704.658 966.019 712.006 966.162 717.665 C 968.482 809.46 913.451 914.445 851.408 979.6 L 851.703 980.437 C 864.55 970.864 876.092 957.025 886.508 944.899 C 979.753 836.357 1050.19 642.808 1090.03 505.436 C 1099.62 472.368 1108.75 438.666 1116.09 405.012 C 1117.16 400.087 1120.41 374.551 1123.33 372.338 C 1136.99 393.737 1134.37 591.642 1132.04 626.008 C 1130.89 643.052 1128.2 659.363 1124.56 676.044 C 1175.47 603.837 1191.53 485.018 1206.71 398.606 C 1208.92 385.991 1211.63 348.664 1214.88 340.302 z"/>
</svg>